<svg xmlns="http://www.w3.org/2000/svg" xmlns:xlink="http://www.w3.org/1999/xlink" width="520" zoomAndPan="magnify" viewBox="0 0 390 389.999986" height="520" preserveAspectRatio="xMidYMid meet" version="1.0"><defs><g/><clipPath id="5287ec3687"><path d="M 82.378906 39 L 304.988281 39 L 304.988281 261 L 82.378906 261 Z M 82.378906 39 " clip-rule="nonzero"/></clipPath></defs><rect x="-39" width="468" fill="#ffffff" y="-38.999999" height="467.999983" fill-opacity="1"/><rect x="-39" width="468" fill="#000000" y="-38.999999" height="467.999983" fill-opacity="1"/><g clip-path="url(#5287ec3687)"><path fill="#ffffff" d="M 86.945312 187.675781 C 89.277344 187.675781 91.167969 185.785156 91.167969 183.453125 L 91.167969 53.847656 L 162.886719 125.566406 C 164.539062 127.214844 167.210938 127.214844 168.863281 125.566406 C 170.511719 123.914062 170.511719 121.242188 168.863281 119.589844 L 89.929688 40.660156 C 88.722656 39.449219 86.90625 39.089844 85.328125 39.742188 C 83.75 40.398438 82.71875 41.9375 82.71875 43.648438 L 82.71875 183.453125 C 82.71875 185.785156 84.609375 187.675781 86.945312 187.675781 Z M 300.402344 261.328125 C 302.734375 261.328125 304.625 259.4375 304.625 257.101562 L 304.625 109.800781 C 304.625 108.09375 303.59375 106.550781 302.015625 105.898438 C 300.4375 105.242188 298.621094 105.605469 297.414062 106.8125 L 223.761719 180.464844 C 222.113281 182.113281 222.113281 184.789062 223.761719 186.4375 C 225.410156 188.089844 228.085938 188.089844 229.738281 186.4375 L 296.175781 120 L 296.175781 257.101562 C 296.175781 259.4375 298.066406 261.328125 300.402344 261.328125 Z M 86.945312 261.328125 C 88.023438 261.328125 89.105469 260.914062 89.929688 260.089844 L 303.386719 46.632812 C 305.039062 44.984375 305.039062 42.308594 303.386719 40.660156 C 301.738281 39.007812 299.0625 39.007812 297.414062 40.660156 L 83.957031 254.117188 C 82.304688 255.765625 82.304688 258.441406 83.957031 260.089844 C 84.78125 260.914062 85.863281 261.328125 86.945312 261.328125 " fill-opacity="1" fill-rule="nonzero"/></g><g fill="#fffbfa" fill-opacity="1"><g transform="translate(32.308793, 305.373535)"><g><path d="M 7.835938 0 C 8.101562 0 8.257812 -0.144531 8.257812 -0.421875 L 8.257812 -12.214844 L 11.433594 -12.214844 C 11.710938 -12.214844 11.855469 -12.359375 11.855469 -12.636719 L 11.855469 -15.375 C 11.855469 -15.652344 11.710938 -15.796875 11.433594 -15.796875 L 0.84375 -15.796875 C 0.566406 -15.796875 0.421875 -15.652344 0.421875 -15.375 L 0.421875 -12.636719 C 0.421875 -12.359375 0.566406 -12.214844 0.84375 -12.214844 L 4.019531 -12.214844 L 4.019531 -0.421875 C 4.019531 -0.144531 4.175781 0 4.441406 0 Z M 7.835938 0 "/></g></g></g><g fill="#fffbfa" fill-opacity="1"><g transform="translate(61.455804, 305.373535)"><g><path d="M 5.347656 0 C 5.625 0 5.769531 -0.144531 5.769531 -0.421875 L 5.769531 -5.328125 L 11.292969 -5.328125 L 11.292969 -0.421875 C 11.292969 -0.144531 11.433594 0 11.710938 0 L 15.074219 0 C 15.351562 0 15.496094 -0.144531 15.496094 -0.421875 L 15.496094 -15.375 C 15.496094 -15.652344 15.351562 -15.796875 15.074219 -15.796875 L 11.710938 -15.796875 C 11.433594 -15.796875 11.292969 -15.652344 11.292969 -15.375 L 11.292969 -8.90625 L 5.769531 -8.90625 L 5.769531 -15.375 C 5.769531 -15.652344 5.625 -15.796875 5.347656 -15.796875 L 1.984375 -15.796875 C 1.707031 -15.796875 1.5625 -15.652344 1.5625 -15.375 L 1.5625 -0.421875 C 1.5625 -0.144531 1.707031 0 1.984375 0 Z M 5.347656 0 "/></g></g></g><g fill="#fffbfa" fill-opacity="1"><g transform="translate(95.384554, 305.373535)"><g><path d="M 11.816406 0 C 12.09375 0 12.238281 -0.144531 12.238281 -0.421875 L 12.238281 -3.15625 C 12.238281 -3.433594 12.09375 -3.578125 11.816406 -3.578125 L 5.769531 -3.578125 L 5.769531 -5.429688 L 10.992188 -5.429688 C 11.269531 -5.429688 11.414062 -5.582031 11.414062 -5.851562 L 11.414062 -8.382812 C 11.414062 -8.660156 11.269531 -8.800781 10.992188 -8.800781 L 5.769531 -8.800781 L 5.769531 -12.214844 L 11.816406 -12.214844 C 12.09375 -12.214844 12.238281 -12.359375 12.238281 -12.636719 L 12.238281 -15.375 C 12.238281 -15.652344 12.09375 -15.796875 11.816406 -15.796875 L 1.984375 -15.796875 C 1.707031 -15.796875 1.5625 -15.652344 1.5625 -15.375 L 1.5625 -0.421875 C 1.5625 -0.144531 1.707031 0 1.984375 0 Z M 11.816406 0 "/></g></g></g><g fill="#fffbfa" fill-opacity="1"><g transform="translate(125.673015, 305.373535)"><g/></g></g><g fill="#fffbfa" fill-opacity="1"><g transform="translate(149.256753, 305.373535)"><g><path d="M 5.265625 0 C 5.542969 0 5.6875 -0.144531 5.6875 -0.421875 L 5.6875 -6.085938 L 9.246094 -1.933594 C 9.441406 -1.707031 9.644531 -1.707031 9.832031 -1.933594 L 13.441406 -6.128906 L 13.441406 -0.421875 C 13.441406 -0.144531 13.585938 0 13.863281 0 L 17.121094 0 C 17.398438 0 17.542969 -0.144531 17.542969 -0.421875 L 17.542969 -15.433594 C 17.542969 -16.214844 17 -16.402344 16.515625 -15.796875 L 9.542969 -7.074219 L 2.613281 -15.796875 C 2.109375 -16.433594 1.582031 -16.214844 1.582031 -15.433594 L 1.582031 -0.421875 C 1.582031 -0.144531 1.726562 0 2.003906 0 Z M 5.265625 0 "/></g></g></g><g fill="#fffbfa" fill-opacity="1"><g transform="translate(185.231879, 305.373535)"><g><path d="M 8.699219 -15.796875 C 8.382812 -16.441406 7.878906 -16.441406 7.558594 -15.796875 L 0.320312 -0.503906 C 0.183594 -0.207031 0.320312 0 0.628906 0 L 4.339844 0 C 4.566406 0 4.742188 -0.125 4.824219 -0.339844 L 5.335938 -1.664062 L 10.921875 -1.664062 L 11.433594 -0.339844 C 11.515625 -0.125 11.691406 0 11.917969 0 L 15.628906 0 C 15.9375 0 16.074219 -0.207031 15.9375 -0.503906 Z M 8.132812 -8.792969 L 9.6875 -4.824219 L 6.570312 -4.824219 Z M 8.132812 -8.792969 "/></g></g></g><g fill="#fffbfa" fill-opacity="1"><g transform="translate(218.358527, 305.373535)"><g><path d="M 6.449219 0.421875 C 9.441406 0.421875 12.636719 -0.742188 12.636719 -4.421875 C 12.636719 -7.351562 10.59375 -8.617188 8.71875 -9.480469 C 6.847656 -10.34375 5.367188 -10.808594 5.367188 -11.753906 C 5.367188 -12.464844 6.066406 -12.699219 7.035156 -12.699219 C 7.980469 -12.699219 9.183594 -12.464844 10.210938 -12.113281 C 10.46875 -12.019531 10.652344 -12.132812 10.734375 -12.382812 L 11.496094 -14.972656 C 11.578125 -15.25 11.496094 -15.414062 11.230469 -15.496094 C 9.789062 -15.9375 8.101562 -16.214844 6.890625 -16.214844 C 3.9375 -16.214844 1.089844 -14.910156 1.089844 -11.457031 C 1.089844 -8.988281 2.671875 -7.753906 4.503906 -6.808594 C 6.355469 -5.851562 8.339844 -5.285156 8.339844 -4.238281 C 8.339844 -3.433594 7.558594 -3.136719 6.46875 -3.136719 C 5.328125 -3.136719 3.816406 -3.457031 2.46875 -3.898438 C 2.210938 -3.980469 2.027344 -3.917969 1.933594 -3.640625 L 1.027344 -0.882812 C 0.945312 -0.605469 1.050781 -0.441406 1.328125 -0.359375 C 3.238281 0.183594 4.882812 0.421875 6.449219 0.421875 Z M 6.449219 0.421875 "/></g></g></g><g fill="#fffbfa" fill-opacity="1"><g transform="translate(248.708683, 305.373535)"><g><path d="M 7.835938 0 C 8.101562 0 8.257812 -0.144531 8.257812 -0.421875 L 8.257812 -12.214844 L 11.433594 -12.214844 C 11.710938 -12.214844 11.855469 -12.359375 11.855469 -12.636719 L 11.855469 -15.375 C 11.855469 -15.652344 11.710938 -15.796875 11.433594 -15.796875 L 0.84375 -15.796875 C 0.566406 -15.796875 0.421875 -15.652344 0.421875 -15.375 L 0.421875 -12.636719 C 0.421875 -12.359375 0.566406 -12.214844 0.84375 -12.214844 L 4.019531 -12.214844 L 4.019531 -0.421875 C 4.019531 -0.144531 4.175781 0 4.441406 0 Z M 7.835938 0 "/></g></g></g><g fill="#fffbfa" fill-opacity="1"><g transform="translate(277.855704, 305.373535)"><g><path d="M 11.816406 0 C 12.09375 0 12.238281 -0.144531 12.238281 -0.421875 L 12.238281 -3.15625 C 12.238281 -3.433594 12.09375 -3.578125 11.816406 -3.578125 L 5.769531 -3.578125 L 5.769531 -5.429688 L 10.992188 -5.429688 C 11.269531 -5.429688 11.414062 -5.582031 11.414062 -5.851562 L 11.414062 -8.382812 C 11.414062 -8.660156 11.269531 -8.800781 10.992188 -8.800781 L 5.769531 -8.800781 L 5.769531 -12.214844 L 11.816406 -12.214844 C 12.09375 -12.214844 12.238281 -12.359375 12.238281 -12.636719 L 12.238281 -15.375 C 12.238281 -15.652344 12.09375 -15.796875 11.816406 -15.796875 L 1.984375 -15.796875 C 1.707031 -15.796875 1.5625 -15.652344 1.5625 -15.375 L 1.5625 -0.421875 C 1.5625 -0.144531 1.707031 0 1.984375 0 Z M 11.816406 0 "/></g></g></g><g fill="#fffbfa" fill-opacity="1"><g transform="translate(308.144173, 305.373535)"><g><path d="M 11.773438 -5.933594 C 13.328125 -6.746094 14.210938 -8.433594 14.210938 -10.714844 C 14.210938 -13.417969 13 -15.796875 8.546875 -15.796875 L 1.984375 -15.796875 C 1.707031 -15.796875 1.5625 -15.652344 1.5625 -15.375 L 1.5625 -0.421875 C 1.5625 -0.144531 1.707031 0 1.984375 0 L 5.367188 0 C 5.644531 0 5.789062 -0.144531 5.789062 -0.421875 L 5.789062 -5.386719 L 7.570312 -5.386719 L 10.109375 -0.320312 C 10.210938 -0.101562 10.367188 0 10.59375 0 L 14.425781 0 C 14.746094 0 14.871094 -0.207031 14.726562 -0.503906 Z M 7.816406 -12.214844 C 8.660156 -12.214844 10.003906 -12.214844 10.003906 -10.675781 C 10.003906 -8.96875 8.402344 -8.96875 7.816406 -8.96875 L 5.789062 -8.96875 L 5.789062 -12.214844 Z M 7.816406 -12.214844 "/></g></g></g><g fill="#fffbfa" fill-opacity="1"><g transform="translate(340.622986, 305.373535)"><g><path d="M 10.148438 0 C 10.425781 0 10.570312 -0.144531 10.570312 -0.421875 L 10.570312 -6.046875 L 16.71875 -15.292969 C 16.917969 -15.558594 16.78125 -15.796875 16.441406 -15.796875 L 12.359375 -15.796875 C 12.132812 -15.796875 11.960938 -15.691406 11.855469 -15.496094 L 8.484375 -9.832031 L 5.164062 -15.496094 C 5.058594 -15.691406 4.882812 -15.796875 4.660156 -15.796875 L 0.566406 -15.796875 C 0.238281 -15.796875 0.101562 -15.558594 0.296875 -15.292969 L 6.355469 -6.046875 L 6.355469 -0.421875 C 6.355469 -0.144531 6.507812 0 6.777344 0 Z M 10.148438 0 "/></g></g></g><g fill="#fffbfa" fill-opacity="1"><g transform="translate(121.211426, 331.698806)"><g><path d="M 5.347656 0 C 5.625 0 5.769531 -0.144531 5.769531 -0.421875 L 5.769531 -5.328125 L 11.292969 -5.328125 L 11.292969 -0.421875 C 11.292969 -0.144531 11.433594 0 11.710938 0 L 15.074219 0 C 15.351562 0 15.496094 -0.144531 15.496094 -0.421875 L 15.496094 -15.375 C 15.496094 -15.652344 15.351562 -15.796875 15.074219 -15.796875 L 11.710938 -15.796875 C 11.433594 -15.796875 11.292969 -15.652344 11.292969 -15.375 L 11.292969 -8.90625 L 5.769531 -8.90625 L 5.769531 -15.375 C 5.769531 -15.652344 5.625 -15.796875 5.347656 -15.796875 L 1.984375 -15.796875 C 1.707031 -15.796875 1.5625 -15.652344 1.5625 -15.375 L 1.5625 -0.421875 C 1.5625 -0.144531 1.707031 0 1.984375 0 Z M 5.347656 0 "/></g></g></g><g fill="#fffbfa" fill-opacity="1"><g transform="translate(155.140176, 331.698806)"><g><path d="M 9.480469 0.421875 C 14.632812 0.421875 18.066406 -2.816406 18.066406 -7.898438 C 18.066406 -12.976562 14.632812 -16.214844 9.480469 -16.214844 C 4.339844 -16.214844 0.925781 -12.976562 0.925781 -7.898438 C 0.925781 -2.816406 4.339844 0.421875 9.480469 0.421875 Z M 9.480469 -3.371094 C 6.871094 -3.371094 5.140625 -5.101562 5.140625 -7.898438 C 5.140625 -10.695312 6.871094 -12.421875 9.480469 -12.421875 C 12.113281 -12.421875 13.863281 -10.695312 13.863281 -7.898438 C 13.863281 -5.101562 12.113281 -3.371094 9.480469 -3.371094 Z M 9.480469 -3.371094 "/></g></g></g><g fill="#fffbfa" fill-opacity="1"><g transform="translate(191.002188, 331.698806)"><g><path d="M 8.546875 0.421875 C 12.421875 0.421875 15.691406 -1.246094 15.691406 -5.328125 L 15.691406 -15.375 C 15.691406 -15.652344 15.539062 -15.796875 15.269531 -15.796875 L 11.796875 -15.796875 C 11.515625 -15.796875 11.375 -15.652344 11.375 -15.375 L 11.375 -6.449219 C 11.375 -4.277344 10.40625 -3.371094 8.546875 -3.371094 C 6.714844 -3.371094 5.726562 -4.277344 5.726562 -6.449219 L 5.726562 -15.375 C 5.726562 -15.652344 5.582031 -15.796875 5.304688 -15.796875 L 1.832031 -15.796875 C 1.5625 -15.796875 1.410156 -15.652344 1.410156 -15.375 L 1.410156 -5.328125 C 1.410156 -1.246094 4.78125 0.421875 8.546875 0.421875 Z M 8.546875 0.421875 "/></g></g></g><g fill="#fffbfa" fill-opacity="1"><g transform="translate(224.951509, 331.698806)"><g><path d="M 6.449219 0.421875 C 9.441406 0.421875 12.636719 -0.742188 12.636719 -4.421875 C 12.636719 -7.351562 10.59375 -8.617188 8.71875 -9.480469 C 6.847656 -10.34375 5.367188 -10.808594 5.367188 -11.753906 C 5.367188 -12.464844 6.066406 -12.699219 7.035156 -12.699219 C 7.980469 -12.699219 9.183594 -12.464844 10.210938 -12.113281 C 10.46875 -12.019531 10.652344 -12.132812 10.734375 -12.382812 L 11.496094 -14.972656 C 11.578125 -15.25 11.496094 -15.414062 11.230469 -15.496094 C 9.789062 -15.9375 8.101562 -16.214844 6.890625 -16.214844 C 3.9375 -16.214844 1.089844 -14.910156 1.089844 -11.457031 C 1.089844 -8.988281 2.671875 -7.753906 4.503906 -6.808594 C 6.355469 -5.851562 8.339844 -5.285156 8.339844 -4.238281 C 8.339844 -3.433594 7.558594 -3.136719 6.46875 -3.136719 C 5.328125 -3.136719 3.816406 -3.457031 2.46875 -3.898438 C 2.210938 -3.980469 2.027344 -3.917969 1.933594 -3.640625 L 1.027344 -0.882812 C 0.945312 -0.605469 1.050781 -0.441406 1.328125 -0.359375 C 3.238281 0.183594 4.882812 0.421875 6.449219 0.421875 Z M 6.449219 0.421875 "/></g></g></g><g fill="#fffbfa" fill-opacity="1"><g transform="translate(255.301664, 331.698806)"><g><path d="M 11.816406 0 C 12.09375 0 12.238281 -0.144531 12.238281 -0.421875 L 12.238281 -3.15625 C 12.238281 -3.433594 12.09375 -3.578125 11.816406 -3.578125 L 5.769531 -3.578125 L 5.769531 -5.429688 L 10.992188 -5.429688 C 11.269531 -5.429688 11.414062 -5.582031 11.414062 -5.851562 L 11.414062 -8.382812 C 11.414062 -8.660156 11.269531 -8.800781 10.992188 -8.800781 L 5.769531 -8.800781 L 5.769531 -12.214844 L 11.816406 -12.214844 C 12.09375 -12.214844 12.238281 -12.359375 12.238281 -12.636719 L 12.238281 -15.375 C 12.238281 -15.652344 12.09375 -15.796875 11.816406 -15.796875 L 1.984375 -15.796875 C 1.707031 -15.796875 1.5625 -15.652344 1.5625 -15.375 L 1.5625 -0.421875 C 1.5625 -0.144531 1.707031 0 1.984375 0 Z M 11.816406 0 "/></g></g></g><g fill="#00ffd0" fill-opacity="1"><g transform="translate(136.049235, 186.165026)"><g><path d="M 2.15625 -2.011719 C 3.105469 -2.960938 3.265625 -4.273438 2.570312 -5.328125 L 1.722656 -4.484375 C 1.988281 -3.921875 1.867188 -3.277344 1.394531 -2.804688 C 0.78125 -2.191406 -0.0976562 -2.207031 -0.746094 -2.855469 C -1.394531 -3.503906 -1.40625 -4.390625 -0.792969 -5.003906 C -0.335938 -5.460938 0.289062 -5.589844 0.824219 -5.332031 L 1.667969 -6.175781 C 0.597656 -6.835938 -0.679688 -6.671875 -1.597656 -5.753906 C -2.6875 -4.664062 -2.683594 -3.125 -1.582031 -2.023438 C -0.480469 -0.921875 1.058594 -0.917969 2.15625 -2.011719 Z M 2.15625 -2.011719 "/></g></g></g><g fill="#00ffd0" fill-opacity="1"><g transform="translate(142.262719, 179.951543)"><g><path d="M 0.433594 -0.433594 L 1.25 -1.25 L 0.128906 -2.375 L 0.667969 -2.914062 L 2.433594 -2.433594 L 3.382812 -3.382812 L 1.386719 -3.886719 C 1.625 -4.507812 1.488281 -5.152344 0.957031 -5.683594 C 0.191406 -6.449219 -0.808594 -6.398438 -1.632812 -5.574219 L -3.171875 -4.035156 Z M -0.570312 -3.050781 L -1.664062 -4.144531 L -1.039062 -4.765625 C -0.636719 -5.167969 -0.214844 -5.199219 0.132812 -4.847656 C 0.484375 -4.5 0.453125 -4.078125 0.0507812 -3.675781 Z M -0.570312 -3.050781 "/></g></g></g><g fill="#00ffd0" fill-opacity="1"><g transform="translate(147.94597, 174.268292)"><g><path d="M 0.433594 -0.433594 L 2.855469 -2.855469 L 2.160156 -3.550781 L 0.550781 -1.941406 L -0.238281 -2.726562 L 1.179688 -4.144531 L 0.496094 -4.828125 L -0.921875 -3.414062 L -1.667969 -4.160156 L -0.113281 -5.714844 L -0.804688 -6.402344 L -3.171875 -4.035156 Z M 0.433594 -0.433594 "/></g></g></g><g fill="#00ffd0" fill-opacity="1"><g transform="translate(153.124728, 169.089533)"><g><path d="M 0.046875 -0.046875 L 0.921875 -0.921875 L 0.539062 -1.785156 L 1.972656 -3.21875 L 2.835938 -2.835938 L 3.710938 -3.710938 L -1.324219 -5.882812 L -2.125 -5.082031 Z M 0.109375 -2.640625 L -0.707031 -4.464844 L 1.121094 -3.65625 Z M 0.109375 -2.640625 "/></g></g></g><g fill="#00ffd0" fill-opacity="1"><g transform="translate(158.941821, 163.27244)"><g><path d="M 1.296875 -1.296875 L 2.117188 -2.117188 L -0.71875 -4.953125 L 0.421875 -6.09375 L -0.34375 -6.863281 L -3.449219 -3.757812 L -2.683594 -2.992188 L -1.539062 -4.132812 Z M 1.296875 -1.296875 "/></g></g></g><g fill="#00ffd0" fill-opacity="1"><g transform="translate(164.414009, 157.800253)"><g><path d="M 0.433594 -0.433594 L 1.25 -1.25 L -2.351562 -4.855469 L -3.171875 -4.035156 Z M 0.433594 -0.433594 "/></g></g></g><g fill="#00ffd0" fill-opacity="1"><g transform="translate(168.156508, 154.057753)"><g><path d="M 1.429688 -1.429688 L 2.234375 -2.234375 L 0.015625 -7.222656 L -0.859375 -6.347656 L 0.660156 -3.015625 L -0.917969 -3.726562 L -2.675781 -4.53125 L -3.558594 -3.648438 Z M 1.429688 -1.429688 "/></g></g></g><g fill="#00ffd0" fill-opacity="1"><g transform="translate(173.880947, 148.333315)"><g><path d="M 0.433594 -0.433594 L 2.855469 -2.855469 L 2.160156 -3.550781 L 0.550781 -1.941406 L -0.238281 -2.726562 L 1.179688 -4.144531 L 0.496094 -4.828125 L -0.921875 -3.414062 L -1.667969 -4.160156 L -0.113281 -5.714844 L -0.804688 -6.402344 L -3.171875 -4.035156 Z M 0.433594 -0.433594 "/></g></g></g><g fill="#00ffd0" fill-opacity="1"><g transform="translate(179.059706, 143.154556)"><g/></g></g><g fill="#00ffd0" fill-opacity="1"><g transform="translate(182.328601, 139.88566)"><g><path d="M 0.433594 -0.433594 L 1.859375 -1.859375 C 2.996094 -2.996094 3.03125 -4.484375 1.957031 -5.558594 C 0.886719 -6.628906 -0.609375 -6.597656 -1.746094 -5.460938 L -3.171875 -4.035156 Z M 0.5 -2.003906 L -1.601562 -4.101562 L -1.019531 -4.683594 C -0.371094 -5.332031 0.484375 -5.355469 1.117188 -4.71875 C 1.75 -4.085938 1.730469 -3.234375 1.089844 -2.59375 Z M 0.5 -2.003906 "/></g></g></g><g fill="#00ffd0" fill-opacity="1"><g transform="translate(188.361912, 133.85235)"><g><path d="M 0.433594 -0.433594 L 1.25 -1.25 L -2.351562 -4.855469 L -3.171875 -4.035156 Z M 0.433594 -0.433594 "/></g></g></g><g fill="#00ffd0" fill-opacity="1"><g transform="translate(192.104411, 130.10985)"><g><path d="M 2.183594 -2.039062 C 3.371094 -3.226562 3.257812 -4.875 1.941406 -6.027344 L -0.09375 -3.996094 L 0.539062 -3.363281 L 1.710938 -4.53125 C 2.042969 -3.988281 1.964844 -3.324219 1.441406 -2.800781 C 0.78125 -2.140625 -0.113281 -2.191406 -0.761719 -2.839844 C -1.421875 -3.5 -1.445312 -4.402344 -0.8125 -5.035156 C -0.410156 -5.4375 0.109375 -5.585938 0.597656 -5.445312 L 1.476562 -6.328125 C 0.503906 -6.867188 -0.707031 -6.644531 -1.582031 -5.769531 C -2.675781 -4.675781 -2.675781 -3.121094 -1.582031 -2.023438 C -0.480469 -0.921875 1.074219 -0.933594 2.183594 -2.039062 Z M 2.183594 -2.039062 "/></g></g></g><g fill="#00ffd0" fill-opacity="1"><g transform="translate(198.364227, 123.850035)"><g><path d="M 0.433594 -0.433594 L 1.25 -1.25 L -2.351562 -4.855469 L -3.171875 -4.035156 Z M 0.433594 -0.433594 "/></g></g></g><g fill="#00ffd0" fill-opacity="1"><g transform="translate(202.106726, 120.107535)"><g><path d="M 1.296875 -1.296875 L 2.117188 -2.117188 L -0.71875 -4.953125 L 0.421875 -6.09375 L -0.34375 -6.863281 L -3.449219 -3.757812 L -2.683594 -2.992188 L -1.539062 -4.132812 Z M 1.296875 -1.296875 "/></g></g></g><g fill="#00ffd0" fill-opacity="1"><g transform="translate(207.578915, 114.635347)"><g><path d="M 0.046875 -0.046875 L 0.921875 -0.921875 L 0.539062 -1.785156 L 1.972656 -3.21875 L 2.835938 -2.835938 L 3.710938 -3.710938 L -1.324219 -5.882812 L -2.125 -5.082031 Z M 0.109375 -2.640625 L -0.707031 -4.464844 L 1.121094 -3.65625 Z M 0.109375 -2.640625 "/></g></g></g><g fill="#00ffd0" fill-opacity="1"><g transform="translate(213.39601, 108.818251)"><g><path d="M 0.433594 -0.433594 L 2.824219 -2.824219 L 2.058594 -3.59375 L 0.484375 -2.019531 L -2.351562 -4.855469 L -3.171875 -4.035156 Z M 0.433594 -0.433594 "/></g></g></g><g fill="#00ffd0" fill-opacity="1"><g transform="translate(218.420333, 103.793928)"><g/></g></g><g fill="#00ffd0" fill-opacity="1"><g transform="translate(221.689229, 100.525033)"><g><path d="M 0.046875 -0.046875 L 0.921875 -0.921875 L 0.539062 -1.785156 L 1.972656 -3.21875 L 2.835938 -2.835938 L 3.710938 -3.710938 L -1.324219 -5.882812 L -2.125 -5.082031 Z M 0.109375 -2.640625 L -0.707031 -4.464844 L 1.121094 -3.65625 Z M 0.109375 -2.640625 "/></g></g></g><g fill="#00ffd0" fill-opacity="1"><g transform="translate(227.506324, 94.707938)"><g><path d="M 2.183594 -2.039062 C 3.371094 -3.226562 3.257812 -4.875 1.941406 -6.027344 L -0.09375 -3.996094 L 0.539062 -3.363281 L 1.710938 -4.53125 C 2.042969 -3.988281 1.964844 -3.324219 1.441406 -2.800781 C 0.78125 -2.140625 -0.113281 -2.191406 -0.761719 -2.839844 C -1.421875 -3.5 -1.445312 -4.402344 -0.8125 -5.035156 C -0.410156 -5.4375 0.109375 -5.585938 0.597656 -5.445312 L 1.476562 -6.328125 C 0.503906 -6.867188 -0.707031 -6.644531 -1.582031 -5.769531 C -2.675781 -4.675781 -2.675781 -3.121094 -1.582031 -2.023438 C -0.480469 -0.921875 1.074219 -0.933594 2.183594 -2.039062 Z M 2.183594 -2.039062 "/></g></g></g><g fill="#00ffd0" fill-opacity="1"><g transform="translate(233.766139, 88.448122)"><g><path d="M 0.433594 -0.433594 L 2.855469 -2.855469 L 2.160156 -3.550781 L 0.550781 -1.941406 L -0.238281 -2.726562 L 1.179688 -4.144531 L 0.496094 -4.828125 L -0.921875 -3.414062 L -1.667969 -4.160156 L -0.113281 -5.714844 L -0.804688 -6.402344 L -3.171875 -4.035156 Z M 0.433594 -0.433594 "/></g></g></g><g fill="#00ffd0" fill-opacity="1"><g transform="translate(238.944898, 83.269363)"><g><path d="M 0.433594 -0.433594 L 1.246094 -1.246094 L -0.960938 -3.453125 L 2.835938 -2.835938 L 3.53125 -3.53125 L -0.0703125 -7.136719 L -0.886719 -6.320312 L 1.308594 -4.128906 L -2.476562 -4.730469 L -3.171875 -4.035156 Z M 0.433594 -0.433594 "/></g></g></g><g fill="#00ffd0" fill-opacity="1"><g transform="translate(244.967912, 77.246349)"><g><path d="M 2.15625 -2.011719 C 3.105469 -2.960938 3.265625 -4.273438 2.570312 -5.328125 L 1.722656 -4.484375 C 1.988281 -3.921875 1.867188 -3.277344 1.394531 -2.804688 C 0.78125 -2.191406 -0.0976562 -2.207031 -0.746094 -2.855469 C -1.394531 -3.503906 -1.40625 -4.390625 -0.792969 -5.003906 C -0.335938 -5.460938 0.289062 -5.589844 0.824219 -5.332031 L 1.667969 -6.175781 C 0.597656 -6.835938 -0.679688 -6.671875 -1.597656 -5.753906 C -2.6875 -4.664062 -2.683594 -3.125 -1.582031 -2.023438 C -0.480469 -0.921875 1.058594 -0.917969 2.15625 -2.011719 Z M 2.15625 -2.011719 "/></g></g></g><g fill="#00ffd0" fill-opacity="1"><g transform="translate(251.18139, 71.032871)"><g><path d="M 1.375 -1.375 L 2.191406 -2.191406 L 0.921875 -3.464844 L -0.0859375 -7.121094 L -1.019531 -6.1875 L -0.628906 -4.910156 L -0.328125 -3.902344 L -1.34375 -4.195312 L -2.625 -4.582031 L -3.558594 -3.648438 L 0.113281 -2.636719 Z M 1.375 -1.375 "/></g></g></g></svg>