<svg xmlns="http://www.w3.org/2000/svg" xmlns:xlink="http://www.w3.org/1999/xlink" width="520" zoomAndPan="magnify" viewBox="0 0 390 389.999986" height="520" preserveAspectRatio="xMidYMid meet" version="1.0"><defs><g/></defs><g fill="#0f046a" fill-opacity="1"><g transform="translate(49.595436, 188.999985)"><g><path d="M 7.003906 0 C 7.242188 0 7.382812 -0.128906 7.382812 -0.375 L 7.382812 -10.921875 L 10.222656 -10.921875 C 10.46875 -10.921875 10.597656 -11.046875 10.597656 -11.296875 L 10.597656 -13.742188 C 10.597656 -13.988281 10.46875 -14.117188 10.222656 -14.117188 L 0.753906 -14.117188 C 0.503906 -14.117188 0.375 -13.988281 0.375 -13.742188 L 0.375 -11.296875 C 0.375 -11.046875 0.503906 -10.921875 0.753906 -10.921875 L 3.59375 -10.921875 L 3.59375 -0.375 C 3.59375 -0.128906 3.730469 0 3.972656 0 Z M 7.003906 0 "/></g></g></g><g fill="#0f046a" fill-opacity="1"><g transform="translate(75.648003, 188.999985)"><g><path d="M 4.78125 0 C 5.027344 0 5.15625 -0.128906 5.15625 -0.375 L 5.15625 -4.761719 L 10.09375 -4.761719 L 10.09375 -0.375 C 10.09375 -0.128906 10.222656 0 10.46875 0 L 13.476562 0 C 13.722656 0 13.851562 -0.128906 13.851562 -0.375 L 13.851562 -13.742188 C 13.851562 -13.988281 13.722656 -14.117188 13.476562 -14.117188 L 10.46875 -14.117188 C 10.222656 -14.117188 10.09375 -13.988281 10.09375 -13.742188 L 10.09375 -7.960938 L 5.15625 -7.960938 L 5.15625 -13.742188 C 5.15625 -13.988281 5.027344 -14.117188 4.78125 -14.117188 L 1.773438 -14.117188 C 1.527344 -14.117188 1.398438 -13.988281 1.398438 -13.742188 L 1.398438 -0.375 C 1.398438 -0.128906 1.527344 0 1.773438 0 Z M 4.78125 0 "/></g></g></g><g fill="#0f046a" fill-opacity="1"><g transform="translate(105.973737, 188.999985)"><g><path d="M 10.5625 0 C 10.808594 0 10.9375 -0.128906 10.9375 -0.375 L 10.9375 -2.820312 C 10.9375 -3.070312 10.808594 -3.199219 10.5625 -3.199219 L 5.15625 -3.199219 L 5.15625 -4.851562 L 9.824219 -4.851562 C 10.074219 -4.851562 10.203125 -4.992188 10.203125 -5.230469 L 10.203125 -7.492188 C 10.203125 -7.738281 10.074219 -7.867188 9.824219 -7.867188 L 5.15625 -7.867188 L 5.15625 -10.921875 L 10.5625 -10.921875 C 10.808594 -10.921875 10.9375 -11.046875 10.9375 -11.296875 L 10.9375 -13.742188 C 10.9375 -13.988281 10.808594 -14.117188 10.5625 -14.117188 L 1.773438 -14.117188 C 1.527344 -14.117188 1.398438 -13.988281 1.398438 -13.742188 L 1.398438 -0.375 C 1.398438 -0.128906 1.527344 0 1.773438 0 Z M 10.5625 0 "/></g></g></g><g fill="#0f046a" fill-opacity="1"><g transform="translate(154.127342, 188.999985)"><g><path d="M 4.707031 0 C 4.953125 0 5.082031 -0.128906 5.082031 -0.375 L 5.082031 -5.441406 L 8.261719 -1.726562 C 8.4375 -1.527344 8.621094 -1.527344 8.789062 -1.726562 L 12.015625 -5.476562 L 12.015625 -0.375 C 12.015625 -0.128906 12.140625 0 12.390625 0 L 15.304688 0 C 15.550781 0 15.679688 -0.128906 15.679688 -0.375 L 15.679688 -13.796875 C 15.679688 -14.496094 15.195312 -14.660156 14.761719 -14.117188 L 8.53125 -6.324219 L 2.335938 -14.117188 C 1.882812 -14.6875 1.414062 -14.496094 1.414062 -13.796875 L 1.414062 -0.375 C 1.414062 -0.128906 1.542969 0 1.792969 0 Z M 4.707031 0 "/></g></g></g><g fill="#0f046a" fill-opacity="1"><g transform="translate(186.281804, 188.999985)"><g><path d="M 7.777344 -14.117188 C 7.492188 -14.699219 7.039062 -14.699219 6.757812 -14.117188 L 0.285156 -0.449219 C 0.164062 -0.183594 0.285156 0 0.5625 0 L 3.878906 0 C 4.082031 0 4.238281 -0.109375 4.3125 -0.304688 L 4.769531 -1.488281 L 9.761719 -1.488281 L 10.222656 -0.304688 C 10.292969 -0.109375 10.453125 0 10.652344 0 L 13.972656 0 C 14.246094 0 14.367188 -0.183594 14.246094 -0.449219 Z M 7.269531 -7.859375 L 8.660156 -4.3125 L 5.875 -4.3125 Z M 7.269531 -7.859375 "/></g></g></g><g fill="#0f046a" fill-opacity="1"><g transform="translate(215.890746, 188.999985)"><g><path d="M 5.761719 0.375 C 8.4375 0.375 11.296875 -0.660156 11.296875 -3.953125 C 11.296875 -6.570312 9.46875 -7.703125 7.792969 -8.476562 C 6.121094 -9.246094 4.796875 -9.660156 4.796875 -10.507812 C 4.796875 -11.140625 5.421875 -11.351562 6.289062 -11.351562 C 7.132812 -11.351562 8.207031 -11.140625 9.128906 -10.828125 C 9.355469 -10.746094 9.523438 -10.847656 9.597656 -11.066406 L 10.277344 -13.382812 C 10.351562 -13.632812 10.277344 -13.777344 10.039062 -13.851562 C 8.75 -14.246094 7.242188 -14.496094 6.160156 -14.496094 C 3.519531 -14.496094 0.972656 -13.328125 0.972656 -10.238281 C 0.972656 -8.035156 2.390625 -6.929688 4.027344 -6.085938 C 5.679688 -5.230469 7.453125 -4.726562 7.453125 -3.785156 C 7.453125 -3.070312 6.757812 -2.804688 5.78125 -2.804688 C 4.761719 -2.804688 3.410156 -3.089844 2.207031 -3.484375 C 1.976562 -3.558594 1.8125 -3.503906 1.726562 -3.253906 L 0.917969 -0.789062 C 0.84375 -0.542969 0.9375 -0.394531 1.1875 -0.320312 C 2.894531 0.164062 4.367188 0.375 5.761719 0.375 Z M 5.761719 0.375 "/></g></g></g><g fill="#0f046a" fill-opacity="1"><g transform="translate(243.018494, 188.999985)"><g><path d="M 7.003906 0 C 7.242188 0 7.382812 -0.128906 7.382812 -0.375 L 7.382812 -10.921875 L 10.222656 -10.921875 C 10.46875 -10.921875 10.597656 -11.046875 10.597656 -11.296875 L 10.597656 -13.742188 C 10.597656 -13.988281 10.46875 -14.117188 10.222656 -14.117188 L 0.753906 -14.117188 C 0.503906 -14.117188 0.375 -13.988281 0.375 -13.742188 L 0.375 -11.296875 C 0.375 -11.046875 0.503906 -10.921875 0.753906 -10.921875 L 3.59375 -10.921875 L 3.59375 -0.375 C 3.59375 -0.128906 3.730469 0 3.972656 0 Z M 7.003906 0 "/></g></g></g><g fill="#0f046a" fill-opacity="1"><g transform="translate(269.071059, 188.999985)"><g><path d="M 10.5625 0 C 10.808594 0 10.9375 -0.128906 10.9375 -0.375 L 10.9375 -2.820312 C 10.9375 -3.070312 10.808594 -3.199219 10.5625 -3.199219 L 5.15625 -3.199219 L 5.15625 -4.851562 L 9.824219 -4.851562 C 10.074219 -4.851562 10.203125 -4.992188 10.203125 -5.230469 L 10.203125 -7.492188 C 10.203125 -7.738281 10.074219 -7.867188 9.824219 -7.867188 L 5.15625 -7.867188 L 5.15625 -10.921875 L 10.5625 -10.921875 C 10.808594 -10.921875 10.9375 -11.046875 10.9375 -11.296875 L 10.9375 -13.742188 C 10.9375 -13.988281 10.808594 -14.117188 10.5625 -14.117188 L 1.773438 -14.117188 C 1.527344 -14.117188 1.398438 -13.988281 1.398438 -13.742188 L 1.398438 -0.375 C 1.398438 -0.128906 1.527344 0 1.773438 0 Z M 10.5625 0 "/></g></g></g><g fill="#0f046a" fill-opacity="1"><g transform="translate(296.14368, 188.999985)"><g><path d="M 10.523438 -5.304688 C 11.914062 -6.03125 12.703125 -7.539062 12.703125 -9.578125 C 12.703125 -11.996094 11.617188 -14.117188 7.636719 -14.117188 L 1.773438 -14.117188 C 1.527344 -14.117188 1.398438 -13.988281 1.398438 -13.742188 L 1.398438 -0.375 C 1.398438 -0.128906 1.527344 0 1.773438 0 L 4.796875 0 C 5.046875 0 5.175781 -0.128906 5.175781 -0.375 L 5.175781 -4.816406 L 6.765625 -4.816406 L 9.035156 -0.285156 C 9.128906 -0.09375 9.265625 0 9.46875 0 L 12.894531 0 C 13.179688 0 13.292969 -0.183594 13.164062 -0.449219 Z M 6.984375 -10.921875 C 7.738281 -10.921875 8.945312 -10.921875 8.945312 -9.542969 C 8.945312 -8.015625 7.511719 -8.015625 6.984375 -8.015625 L 5.175781 -8.015625 L 5.175781 -10.921875 Z M 6.984375 -10.921875 "/></g></g></g><g fill="#0f046a" fill-opacity="1"><g transform="translate(325.173677, 188.999985)"><g><path d="M 9.074219 0 C 9.320312 0 9.449219 -0.128906 9.449219 -0.375 L 9.449219 -5.40625 L 14.945312 -13.667969 C 15.121094 -13.90625 15 -14.117188 14.699219 -14.117188 L 11.046875 -14.117188 C 10.847656 -14.117188 10.691406 -14.027344 10.597656 -13.851562 L 7.582031 -8.789062 L 4.613281 -13.851562 C 4.523438 -14.027344 4.367188 -14.117188 4.164062 -14.117188 L 0.503906 -14.117188 C 0.210938 -14.117188 0.09375 -13.90625 0.265625 -13.667969 L 5.679688 -5.40625 L 5.679688 -0.375 C 5.679688 -0.128906 5.820312 0 6.058594 0 Z M 9.074219 0 "/></g></g></g><g fill="#0f046a" fill-opacity="1"><g transform="translate(129.060274, 213.749983)"><g><path d="M 4.78125 0 C 5.027344 0 5.15625 -0.128906 5.15625 -0.375 L 5.15625 -4.761719 L 10.09375 -4.761719 L 10.09375 -0.375 C 10.09375 -0.128906 10.222656 0 10.46875 0 L 13.476562 0 C 13.722656 0 13.851562 -0.128906 13.851562 -0.375 L 13.851562 -13.742188 C 13.851562 -13.988281 13.722656 -14.117188 13.476562 -14.117188 L 10.46875 -14.117188 C 10.222656 -14.117188 10.09375 -13.988281 10.09375 -13.742188 L 10.09375 -7.960938 L 5.15625 -7.960938 L 5.15625 -13.742188 C 5.15625 -13.988281 5.027344 -14.117188 4.78125 -14.117188 L 1.773438 -14.117188 C 1.527344 -14.117188 1.398438 -13.988281 1.398438 -13.742188 L 1.398438 -0.375 C 1.398438 -0.128906 1.527344 0 1.773438 0 Z M 4.78125 0 "/></g></g></g><g fill="#0f046a" fill-opacity="1"><g transform="translate(159.386008, 213.749983)"><g><path d="M 8.476562 0.375 C 13.078125 0.375 16.148438 -2.519531 16.148438 -7.058594 C 16.148438 -11.601562 13.078125 -14.496094 8.476562 -14.496094 C 3.878906 -14.496094 0.828125 -11.601562 0.828125 -7.058594 C 0.828125 -2.519531 3.878906 0.375 8.476562 0.375 Z M 8.476562 -3.015625 C 6.140625 -3.015625 4.597656 -4.558594 4.597656 -7.058594 C 4.597656 -9.558594 6.140625 -11.105469 8.476562 -11.105469 C 10.828125 -11.105469 12.390625 -9.558594 12.390625 -7.058594 C 12.390625 -4.558594 10.828125 -3.015625 8.476562 -3.015625 Z M 8.476562 -3.015625 "/></g></g></g><g fill="#0f046a" fill-opacity="1"><g transform="translate(191.439387, 213.749983)"><g><path d="M 7.636719 0.375 C 11.105469 0.375 14.027344 -1.113281 14.027344 -4.761719 L 14.027344 -13.742188 C 14.027344 -13.988281 13.890625 -14.117188 13.648438 -14.117188 L 10.542969 -14.117188 C 10.292969 -14.117188 10.167969 -13.988281 10.167969 -13.742188 L 10.167969 -5.761719 C 10.167969 -3.824219 9.300781 -3.015625 7.636719 -3.015625 C 6.003906 -3.015625 5.121094 -3.824219 5.121094 -5.761719 L 5.121094 -13.742188 C 5.121094 -13.988281 4.992188 -14.117188 4.742188 -14.117188 L 1.636719 -14.117188 C 1.398438 -14.117188 1.257812 -13.988281 1.257812 -13.742188 L 1.257812 -4.761719 C 1.257812 -1.113281 4.273438 0.375 7.636719 0.375 Z M 7.636719 0.375 "/></g></g></g><g fill="#0f046a" fill-opacity="1"><g transform="translate(221.783503, 213.749983)"><g><path d="M 5.761719 0.375 C 8.4375 0.375 11.296875 -0.660156 11.296875 -3.953125 C 11.296875 -6.570312 9.46875 -7.703125 7.792969 -8.476562 C 6.121094 -9.246094 4.796875 -9.660156 4.796875 -10.507812 C 4.796875 -11.140625 5.421875 -11.351562 6.289062 -11.351562 C 7.132812 -11.351562 8.207031 -11.140625 9.128906 -10.828125 C 9.355469 -10.746094 9.523438 -10.847656 9.597656 -11.066406 L 10.277344 -13.382812 C 10.351562 -13.632812 10.277344 -13.777344 10.039062 -13.851562 C 8.75 -14.246094 7.242188 -14.496094 6.160156 -14.496094 C 3.519531 -14.496094 0.972656 -13.328125 0.972656 -10.238281 C 0.972656 -8.035156 2.390625 -6.929688 4.027344 -6.085938 C 5.679688 -5.230469 7.453125 -4.726562 7.453125 -3.785156 C 7.453125 -3.070312 6.757812 -2.804688 5.78125 -2.804688 C 4.761719 -2.804688 3.410156 -3.089844 2.207031 -3.484375 C 1.976562 -3.558594 1.8125 -3.503906 1.726562 -3.253906 L 0.917969 -0.789062 C 0.84375 -0.542969 0.9375 -0.394531 1.1875 -0.320312 C 2.894531 0.164062 4.367188 0.375 5.761719 0.375 Z M 5.761719 0.375 "/></g></g></g><g fill="#0f046a" fill-opacity="1"><g transform="translate(248.911251, 213.749983)"><g><path d="M 10.5625 0 C 10.808594 0 10.9375 -0.128906 10.9375 -0.375 L 10.9375 -2.820312 C 10.9375 -3.070312 10.808594 -3.199219 10.5625 -3.199219 L 5.15625 -3.199219 L 5.15625 -4.851562 L 9.824219 -4.851562 C 10.074219 -4.851562 10.203125 -4.992188 10.203125 -5.230469 L 10.203125 -7.492188 C 10.203125 -7.738281 10.074219 -7.867188 9.824219 -7.867188 L 5.15625 -7.867188 L 5.15625 -10.921875 L 10.5625 -10.921875 C 10.808594 -10.921875 10.9375 -11.046875 10.9375 -11.296875 L 10.9375 -13.742188 C 10.9375 -13.988281 10.808594 -14.117188 10.5625 -14.117188 L 1.773438 -14.117188 C 1.527344 -14.117188 1.398438 -13.988281 1.398438 -13.742188 L 1.398438 -0.375 C 1.398438 -0.128906 1.527344 0 1.773438 0 Z M 10.5625 0 "/></g></g></g></svg>