<svg xmlns="http://www.w3.org/2000/svg" xmlns:xlink="http://www.w3.org/1999/xlink" width="520" zoomAndPan="magnify" viewBox="0 0 390 389.999986" height="520" preserveAspectRatio="xMidYMid meet" version="1.0"><defs><g/><clipPath id="0ed2461f85"><path d="M 82.378906 39 L 304.988281 39 L 304.988281 261 L 82.378906 261 Z M 82.378906 39 " clip-rule="nonzero"/></clipPath></defs><rect x="-39" width="468" fill="#ffffff" y="-38.999999" height="467.999983" fill-opacity="1"/><rect x="-39" width="468" fill="#000000" y="-38.999999" height="467.999983" fill-opacity="1"/><g clip-path="url(#0ed2461f85)"><path fill="#ffffff" d="M 86.945312 187.675781 C 89.277344 187.675781 91.167969 185.785156 91.167969 183.453125 L 91.167969 53.847656 L 162.886719 125.566406 C 164.539062 127.214844 167.210938 127.214844 168.863281 125.566406 C 170.511719 123.914062 170.511719 121.242188 168.863281 119.589844 L 89.929688 40.660156 C 88.722656 39.449219 86.90625 39.089844 85.328125 39.742188 C 83.75 40.398438 82.71875 41.9375 82.71875 43.648438 L 82.71875 183.453125 C 82.71875 185.785156 84.609375 187.675781 86.945312 187.675781 Z M 300.402344 261.328125 C 302.734375 261.328125 304.625 259.4375 304.625 257.101562 L 304.625 109.800781 C 304.625 108.09375 303.59375 106.550781 302.015625 105.898438 C 300.4375 105.242188 298.621094 105.605469 297.414062 106.8125 L 223.761719 180.464844 C 222.113281 182.113281 222.113281 184.789062 223.761719 186.4375 C 225.410156 188.089844 228.085938 188.089844 229.738281 186.4375 L 296.175781 120 L 296.175781 257.101562 C 296.175781 259.4375 298.066406 261.328125 300.402344 261.328125 Z M 86.945312 261.328125 C 88.023438 261.328125 89.105469 260.914062 89.929688 260.089844 L 303.386719 46.632812 C 305.039062 44.984375 305.039062 42.308594 303.386719 40.660156 C 301.738281 39.007812 299.0625 39.007812 297.414062 40.660156 L 83.957031 254.117188 C 82.304688 255.765625 82.304688 258.441406 83.957031 260.089844 C 84.78125 260.914062 85.863281 261.328125 86.945312 261.328125 " fill-opacity="1" fill-rule="nonzero"/></g><g fill="#fffbfa" fill-opacity="1"><g transform="translate(32.308793, 305.373535)"><g><path d="M 7.835938 0 C 8.101562 0 8.257812 -0.144531 8.257812 -0.421875 L 8.257812 -12.214844 L 11.433594 -12.214844 C 11.710938 -12.214844 11.855469 -12.359375 11.855469 -12.636719 L 11.855469 -15.375 C 11.855469 -15.652344 11.710938 -15.796875 11.433594 -15.796875 L 0.84375 -15.796875 C 0.566406 -15.796875 0.421875 -15.652344 0.421875 -15.375 L 0.421875 -12.636719 C 0.421875 -12.359375 0.566406 -12.214844 0.84375 -12.214844 L 4.019531 -12.214844 L 4.019531 -0.421875 C 4.019531 -0.144531 4.175781 0 4.441406 0 Z M 7.835938 0 "/></g></g></g><g fill="#fffbfa" fill-opacity="1"><g transform="translate(61.455804, 305.373535)"><g><path d="M 5.347656 0 C 5.625 0 5.769531 -0.144531 5.769531 -0.421875 L 5.769531 -5.328125 L 11.292969 -5.328125 L 11.292969 -0.421875 C 11.292969 -0.144531 11.433594 0 11.710938 0 L 15.074219 0 C 15.351562 0 15.496094 -0.144531 15.496094 -0.421875 L 15.496094 -15.375 C 15.496094 -15.652344 15.351562 -15.796875 15.074219 -15.796875 L 11.710938 -15.796875 C 11.433594 -15.796875 11.292969 -15.652344 11.292969 -15.375 L 11.292969 -8.90625 L 5.769531 -8.90625 L 5.769531 -15.375 C 5.769531 -15.652344 5.625 -15.796875 5.347656 -15.796875 L 1.984375 -15.796875 C 1.707031 -15.796875 1.5625 -15.652344 1.5625 -15.375 L 1.5625 -0.421875 C 1.5625 -0.144531 1.707031 0 1.984375 0 Z M 5.347656 0 "/></g></g></g><g fill="#fffbfa" fill-opacity="1"><g transform="translate(95.384554, 305.373535)"><g><path d="M 11.816406 0 C 12.09375 0 12.238281 -0.144531 12.238281 -0.421875 L 12.238281 -3.15625 C 12.238281 -3.433594 12.09375 -3.578125 11.816406 -3.578125 L 5.769531 -3.578125 L 5.769531 -5.429688 L 10.992188 -5.429688 C 11.269531 -5.429688 11.414062 -5.582031 11.414062 -5.851562 L 11.414062 -8.382812 C 11.414062 -8.660156 11.269531 -8.800781 10.992188 -8.800781 L 5.769531 -8.800781 L 5.769531 -12.214844 L 11.816406 -12.214844 C 12.09375 -12.214844 12.238281 -12.359375 12.238281 -12.636719 L 12.238281 -15.375 C 12.238281 -15.652344 12.09375 -15.796875 11.816406 -15.796875 L 1.984375 -15.796875 C 1.707031 -15.796875 1.5625 -15.652344 1.5625 -15.375 L 1.5625 -0.421875 C 1.5625 -0.144531 1.707031 0 1.984375 0 Z M 11.816406 0 "/></g></g></g><g fill="#fffbfa" fill-opacity="1"><g transform="translate(125.673015, 305.373535)"><g/></g></g><g fill="#fffbfa" fill-opacity="1"><g transform="translate(149.256753, 305.373535)"><g><path d="M 5.265625 0 C 5.542969 0 5.6875 -0.144531 5.6875 -0.421875 L 5.6875 -6.085938 L 9.246094 -1.933594 C 9.441406 -1.707031 9.644531 -1.707031 9.832031 -1.933594 L 13.441406 -6.128906 L 13.441406 -0.421875 C 13.441406 -0.144531 13.585938 0 13.863281 0 L 17.121094 0 C 17.398438 0 17.542969 -0.144531 17.542969 -0.421875 L 17.542969 -15.433594 C 17.542969 -16.214844 17 -16.402344 16.515625 -15.796875 L 9.542969 -7.074219 L 2.613281 -15.796875 C 2.109375 -16.433594 1.582031 -16.214844 1.582031 -15.433594 L 1.582031 -0.421875 C 1.582031 -0.144531 1.726562 0 2.003906 0 Z M 5.265625 0 "/></g></g></g><g fill="#fffbfa" fill-opacity="1"><g transform="translate(185.231879, 305.373535)"><g><path d="M 8.699219 -15.796875 C 8.382812 -16.441406 7.878906 -16.441406 7.558594 -15.796875 L 0.320312 -0.503906 C 0.183594 -0.207031 0.320312 0 0.628906 0 L 4.339844 0 C 4.566406 0 4.742188 -0.125 4.824219 -0.339844 L 5.335938 -1.664062 L 10.921875 -1.664062 L 11.433594 -0.339844 C 11.515625 -0.125 11.691406 0 11.917969 0 L 15.628906 0 C 15.9375 0 16.074219 -0.207031 15.9375 -0.503906 Z M 8.132812 -8.792969 L 9.6875 -4.824219 L 6.570312 -4.824219 Z M 8.132812 -8.792969 "/></g></g></g><g fill="#fffbfa" fill-opacity="1"><g transform="translate(218.358527, 305.373535)"><g><path d="M 6.449219 0.421875 C 9.441406 0.421875 12.636719 -0.742188 12.636719 -4.421875 C 12.636719 -7.351562 10.59375 -8.617188 8.71875 -9.480469 C 6.847656 -10.34375 5.367188 -10.808594 5.367188 -11.753906 C 5.367188 -12.464844 6.066406 -12.699219 7.035156 -12.699219 C 7.980469 -12.699219 9.183594 -12.464844 10.210938 -12.113281 C 10.46875 -12.019531 10.652344 -12.132812 10.734375 -12.382812 L 11.496094 -14.972656 C 11.578125 -15.25 11.496094 -15.414062 11.230469 -15.496094 C 9.789062 -15.9375 8.101562 -16.214844 6.890625 -16.214844 C 3.9375 -16.214844 1.089844 -14.910156 1.089844 -11.457031 C 1.089844 -8.988281 2.671875 -7.753906 4.503906 -6.808594 C 6.355469 -5.851562 8.339844 -5.285156 8.339844 -4.238281 C 8.339844 -3.433594 7.558594 -3.136719 6.46875 -3.136719 C 5.328125 -3.136719 3.816406 -3.457031 2.46875 -3.898438 C 2.210938 -3.980469 2.027344 -3.917969 1.933594 -3.640625 L 1.027344 -0.882812 C 0.945312 -0.605469 1.050781 -0.441406 1.328125 -0.359375 C 3.238281 0.183594 4.882812 0.421875 6.449219 0.421875 Z M 6.449219 0.421875 "/></g></g></g><g fill="#fffbfa" fill-opacity="1"><g transform="translate(248.708683, 305.373535)"><g><path d="M 7.835938 0 C 8.101562 0 8.257812 -0.144531 8.257812 -0.421875 L 8.257812 -12.214844 L 11.433594 -12.214844 C 11.710938 -12.214844 11.855469 -12.359375 11.855469 -12.636719 L 11.855469 -15.375 C 11.855469 -15.652344 11.710938 -15.796875 11.433594 -15.796875 L 0.84375 -15.796875 C 0.566406 -15.796875 0.421875 -15.652344 0.421875 -15.375 L 0.421875 -12.636719 C 0.421875 -12.359375 0.566406 -12.214844 0.84375 -12.214844 L 4.019531 -12.214844 L 4.019531 -0.421875 C 4.019531 -0.144531 4.175781 0 4.441406 0 Z M 7.835938 0 "/></g></g></g><g fill="#fffbfa" fill-opacity="1"><g transform="translate(277.855704, 305.373535)"><g><path d="M 11.816406 0 C 12.09375 0 12.238281 -0.144531 12.238281 -0.421875 L 12.238281 -3.15625 C 12.238281 -3.433594 12.09375 -3.578125 11.816406 -3.578125 L 5.769531 -3.578125 L 5.769531 -5.429688 L 10.992188 -5.429688 C 11.269531 -5.429688 11.414062 -5.582031 11.414062 -5.851562 L 11.414062 -8.382812 C 11.414062 -8.660156 11.269531 -8.800781 10.992188 -8.800781 L 5.769531 -8.800781 L 5.769531 -12.214844 L 11.816406 -12.214844 C 12.09375 -12.214844 12.238281 -12.359375 12.238281 -12.636719 L 12.238281 -15.375 C 12.238281 -15.652344 12.09375 -15.796875 11.816406 -15.796875 L 1.984375 -15.796875 C 1.707031 -15.796875 1.5625 -15.652344 1.5625 -15.375 L 1.5625 -0.421875 C 1.5625 -0.144531 1.707031 0 1.984375 0 Z M 11.816406 0 "/></g></g></g><g fill="#fffbfa" fill-opacity="1"><g transform="translate(308.144173, 305.373535)"><g><path d="M 11.773438 -5.933594 C 13.328125 -6.746094 14.210938 -8.433594 14.210938 -10.714844 C 14.210938 -13.417969 13 -15.796875 8.546875 -15.796875 L 1.984375 -15.796875 C 1.707031 -15.796875 1.5625 -15.652344 1.5625 -15.375 L 1.5625 -0.421875 C 1.5625 -0.144531 1.707031 0 1.984375 0 L 5.367188 0 C 5.644531 0 5.789062 -0.144531 5.789062 -0.421875 L 5.789062 -5.386719 L 7.570312 -5.386719 L 10.109375 -0.320312 C 10.210938 -0.101562 10.367188 0 10.59375 0 L 14.425781 0 C 14.746094 0 14.871094 -0.207031 14.726562 -0.503906 Z M 7.816406 -12.214844 C 8.660156 -12.214844 10.003906 -12.214844 10.003906 -10.675781 C 10.003906 -8.96875 8.402344 -8.96875 7.816406 -8.96875 L 5.789062 -8.96875 L 5.789062 -12.214844 Z M 7.816406 -12.214844 "/></g></g></g><g fill="#fffbfa" fill-opacity="1"><g transform="translate(340.622986, 305.373535)"><g><path d="M 10.148438 0 C 10.425781 0 10.570312 -0.144531 10.570312 -0.421875 L 10.570312 -6.046875 L 16.71875 -15.292969 C 16.917969 -15.558594 16.78125 -15.796875 16.441406 -15.796875 L 12.359375 -15.796875 C 12.132812 -15.796875 11.960938 -15.691406 11.855469 -15.496094 L 8.484375 -9.832031 L 5.164062 -15.496094 C 5.058594 -15.691406 4.882812 -15.796875 4.660156 -15.796875 L 0.566406 -15.796875 C 0.238281 -15.796875 0.101562 -15.558594 0.296875 -15.292969 L 6.355469 -6.046875 L 6.355469 -0.421875 C 6.355469 -0.144531 6.507812 0 6.777344 0 Z M 10.148438 0 "/></g></g></g><g fill="#fffbfa" fill-opacity="1"><g transform="translate(121.211426, 331.698806)"><g><path d="M 5.347656 0 C 5.625 0 5.769531 -0.144531 5.769531 -0.421875 L 5.769531 -5.328125 L 11.292969 -5.328125 L 11.292969 -0.421875 C 11.292969 -0.144531 11.433594 0 11.710938 0 L 15.074219 0 C 15.351562 0 15.496094 -0.144531 15.496094 -0.421875 L 15.496094 -15.375 C 15.496094 -15.652344 15.351562 -15.796875 15.074219 -15.796875 L 11.710938 -15.796875 C 11.433594 -15.796875 11.292969 -15.652344 11.292969 -15.375 L 11.292969 -8.90625 L 5.769531 -8.90625 L 5.769531 -15.375 C 5.769531 -15.652344 5.625 -15.796875 5.347656 -15.796875 L 1.984375 -15.796875 C 1.707031 -15.796875 1.5625 -15.652344 1.5625 -15.375 L 1.5625 -0.421875 C 1.5625 -0.144531 1.707031 0 1.984375 0 Z M 5.347656 0 "/></g></g></g><g fill="#fffbfa" fill-opacity="1"><g transform="translate(155.140176, 331.698806)"><g><path d="M 9.480469 0.421875 C 14.632812 0.421875 18.066406 -2.816406 18.066406 -7.898438 C 18.066406 -12.976562 14.632812 -16.214844 9.480469 -16.214844 C 4.339844 -16.214844 0.925781 -12.976562 0.925781 -7.898438 C 0.925781 -2.816406 4.339844 0.421875 9.480469 0.421875 Z M 9.480469 -3.371094 C 6.871094 -3.371094 5.140625 -5.101562 5.140625 -7.898438 C 5.140625 -10.695312 6.871094 -12.421875 9.480469 -12.421875 C 12.113281 -12.421875 13.863281 -10.695312 13.863281 -7.898438 C 13.863281 -5.101562 12.113281 -3.371094 9.480469 -3.371094 Z M 9.480469 -3.371094 "/></g></g></g><g fill="#fffbfa" fill-opacity="1"><g transform="translate(191.002188, 331.698806)"><g><path d="M 8.546875 0.421875 C 12.421875 0.421875 15.691406 -1.246094 15.691406 -5.328125 L 15.691406 -15.375 C 15.691406 -15.652344 15.539062 -15.796875 15.269531 -15.796875 L 11.796875 -15.796875 C 11.515625 -15.796875 11.375 -15.652344 11.375 -15.375 L 11.375 -6.449219 C 11.375 -4.277344 10.40625 -3.371094 8.546875 -3.371094 C 6.714844 -3.371094 5.726562 -4.277344 5.726562 -6.449219 L 5.726562 -15.375 C 5.726562 -15.652344 5.582031 -15.796875 5.304688 -15.796875 L 1.832031 -15.796875 C 1.5625 -15.796875 1.410156 -15.652344 1.410156 -15.375 L 1.410156 -5.328125 C 1.410156 -1.246094 4.78125 0.421875 8.546875 0.421875 Z M 8.546875 0.421875 "/></g></g></g><g fill="#fffbfa" fill-opacity="1"><g transform="translate(224.951509, 331.698806)"><g><path d="M 6.449219 0.421875 C 9.441406 0.421875 12.636719 -0.742188 12.636719 -4.421875 C 12.636719 -7.351562 10.59375 -8.617188 8.71875 -9.480469 C 6.847656 -10.34375 5.367188 -10.808594 5.367188 -11.753906 C 5.367188 -12.464844 6.066406 -12.699219 7.035156 -12.699219 C 7.980469 -12.699219 9.183594 -12.464844 10.210938 -12.113281 C 10.46875 -12.019531 10.652344 -12.132812 10.734375 -12.382812 L 11.496094 -14.972656 C 11.578125 -15.25 11.496094 -15.414062 11.230469 -15.496094 C 9.789062 -15.9375 8.101562 -16.214844 6.890625 -16.214844 C 3.9375 -16.214844 1.089844 -14.910156 1.089844 -11.457031 C 1.089844 -8.988281 2.671875 -7.753906 4.503906 -6.808594 C 6.355469 -5.851562 8.339844 -5.285156 8.339844 -4.238281 C 8.339844 -3.433594 7.558594 -3.136719 6.46875 -3.136719 C 5.328125 -3.136719 3.816406 -3.457031 2.46875 -3.898438 C 2.210938 -3.980469 2.027344 -3.917969 1.933594 -3.640625 L 1.027344 -0.882812 C 0.945312 -0.605469 1.050781 -0.441406 1.328125 -0.359375 C 3.238281 0.183594 4.882812 0.421875 6.449219 0.421875 Z M 6.449219 0.421875 "/></g></g></g><g fill="#fffbfa" fill-opacity="1"><g transform="translate(255.301664, 331.698806)"><g><path d="M 11.816406 0 C 12.09375 0 12.238281 -0.144531 12.238281 -0.421875 L 12.238281 -3.15625 C 12.238281 -3.433594 12.09375 -3.578125 11.816406 -3.578125 L 5.769531 -3.578125 L 5.769531 -5.429688 L 10.992188 -5.429688 C 11.269531 -5.429688 11.414062 -5.582031 11.414062 -5.851562 L 11.414062 -8.382812 C 11.414062 -8.660156 11.269531 -8.800781 10.992188 -8.800781 L 5.769531 -8.800781 L 5.769531 -12.214844 L 11.816406 -12.214844 C 12.09375 -12.214844 12.238281 -12.359375 12.238281 -12.636719 L 12.238281 -15.375 C 12.238281 -15.652344 12.09375 -15.796875 11.816406 -15.796875 L 1.984375 -15.796875 C 1.707031 -15.796875 1.5625 -15.652344 1.5625 -15.375 L 1.5625 -0.421875 C 1.5625 -0.144531 1.707031 0 1.984375 0 Z M 11.816406 0 "/></g></g></g></svg>